<svg xmlns="http://www.w3.org/2000/svg" xmlns:xlink="http://www.w3.org/1999/xlink" width="500" zoomAndPan="magnify" viewBox="0 0 375 374.999991" height="500" preserveAspectRatio="xMidYMid meet" version="1.0"><defs><g/><clipPath id="6f036f2939"><path d="M 6.660156 7.292969 L 368.808594 7.292969 L 368.808594 370.859375 L 6.660156 370.859375 Z M 6.660156 7.292969 " clip-rule="nonzero"/></clipPath><clipPath id="dc341e0cf8"><path d="M 23.910156 7.292969 L 351.558594 7.292969 C 356.132812 7.292969 360.523438 9.109375 363.757812 12.34375 C 366.992188 15.578125 368.808594 19.96875 368.808594 24.542969 L 368.808594 353.320312 C 368.808594 357.894531 366.992188 362.28125 363.757812 365.519531 C 360.523438 368.753906 356.132812 370.570312 351.558594 370.570312 L 23.910156 370.570312 C 19.332031 370.570312 14.945312 368.753906 11.710938 365.519531 C 8.476562 362.28125 6.660156 357.894531 6.660156 353.320312 L 6.660156 24.542969 C 6.660156 19.96875 8.476562 15.578125 11.710938 12.34375 C 14.945312 9.109375 19.332031 7.292969 23.910156 7.292969 Z M 23.910156 7.292969 " clip-rule="nonzero"/></clipPath></defs><g clip-path="url(#6f036f2939)"><g clip-path="url(#dc341e0cf8)"><path fill="#61005d" d="M 6.660156 7.292969 L 368.808594 7.292969 L 368.808594 370.859375 L 6.660156 370.859375 Z M 6.660156 7.292969 " fill-opacity="1" fill-rule="nonzero"/></g></g><g fill="#ffffff" fill-opacity="1"><g transform="translate(19.661663, 245.931238)"><g><path d="M 34.421875 0 C 24.609375 -16.84375 15.671875 -40.867188 15.527344 -62.695312 C 15.378906 -76.757812 16.113281 -90.820312 17.722656 -104.296875 C 49.65625 -66.503906 92.285156 -15.234375 96.53125 0 L 124.21875 0 C 115.28125 -39.988281 115.28125 -90.378906 124.21875 -130.371094 L 94.1875 -130.371094 C 104.148438 -114.402344 112.792969 -90.820312 113.085938 -69.871094 C 113.230469 -62.546875 113.085938 -55.078125 112.644531 -47.898438 C 101.074219 -56.542969 52.585938 -104.734375 45.847656 -130.371094 L 4.394531 -130.371094 C 13.328125 -90.378906 13.328125 -39.988281 4.394531 0 Z M 34.421875 0 "/></g></g></g><g fill="#ffffff" fill-opacity="1"><g transform="translate(159.978143, 304.49998)"><g><path d="M 4.394531 -130.371094 C 13.328125 -90.378906 13.328125 -39.988281 4.394531 0 L 101.660156 0 C 98.289062 -18.457031 96.972656 -24.753906 95.507812 -44.824219 C 88.621094 -22.117188 63.132812 -4.394531 48.339844 -4.394531 L 44.96875 -4.394531 C 36.914062 -44.382812 37.207031 -91.257812 45.847656 -130.371094 Z M 4.394531 -130.371094 "/></g></g></g><g fill="#ffffff" fill-opacity="1"><g transform="translate(246.107801, 245.931238)"><g><path d="M 8.789062 -50.976562 C 8.789062 -16.257812 34.570312 2.929688 59.472656 2.929688 C 94.628906 2.929688 105.90625 -22.851562 105.90625 -51.414062 C 105.90625 -108.105469 111.328125 -120.117188 118.652344 -130.371094 L 80.566406 -130.371094 C 93.75 -119.824219 101.660156 -101.21875 101.660156 -51.414062 C 101.660156 -31.933594 94.335938 -4.246094 70.3125 -4.246094 C 54.199219 -4.246094 37.058594 -19.042969 37.058594 -51.414062 C 37.058594 -92.429688 39.257812 -110.300781 43.652344 -130.371094 L 2.195312 -130.371094 C 6.882812 -109.128906 8.789062 -90.234375 8.789062 -50.976562 Z M 8.789062 -50.976562 "/></g></g></g></svg>